<svg width="25" height="24" viewBox="0 0 25 24" fill="none" xmlns="http://www.w3.org/2000/svg">
<g clip-path="url(#clip0_8423_966)">
<path d="M16.984 11.976L23.135 6.632V17.259L16.984 11.976ZM9.058 12.881L11.218 14.756C11.557 15.044 11.999 15.218 12.482 15.218H12.499H12.512C12.996 15.218 13.438 15.043 13.781 14.753L13.778 14.755L15.938 12.88L22.504 18.519H2.495L9.058 12.881ZM2.486 5.365H22.516L12.895 13.721C12.7873 13.8074 12.6531 13.854 12.515 13.853H12.501H12.488C12.3495 13.854 12.2148 13.807 12.107 13.72L12.108 13.721L2.486 5.365ZM1.865 6.631L8.015 11.975L1.865 17.255V6.631ZM23.465 4.19C23.225 4.07 22.943 4 22.644 4H2.359C2.06929 4.00115 1.78367 4.06853 1.524 4.197L1.535 4.192C1.22487 4.34548 0.963696 4.58244 0.780854 4.87622C0.598013 5.17 0.500749 5.50897 0.5 5.855V18.027C0.500529 18.5196 0.696452 18.9919 1.04478 19.3402C1.39311 19.6885 1.86539 19.8845 2.358 19.885H22.641C23.1336 19.8845 23.6059 19.6885 23.9542 19.3402C24.3025 18.9919 24.4985 18.5196 24.499 18.027V5.855C24.499 5.128 24.08 4.498 23.47 4.195L23.459 4.19H23.465Z" fill="black"/>
</g>
<defs>
<clipPath id="clip0_8423_966">
<rect width="24" height="24" fill="white" transform="translate(0.5)"/>
</clipPath>
</defs>
</svg>
