<svg width="25" height="24" viewBox="0 0 25 24" fill="none" xmlns="http://www.w3.org/2000/svg">
<path d="M2.5 19V17H22.5V19H2.5ZM3.65 12.95L2.35 12.2L3.2 10.7H1.5V9.2H3.2L2.35 7.75L3.65 7L4.5 8.45L5.35 7L6.65 7.75L5.8 9.2H7.5V10.7H5.8L6.65 12.2L5.35 12.95L4.5 11.45L3.65 12.95ZM11.65 12.95L10.35 12.2L11.2 10.7H9.5V9.2H11.2L10.35 7.75L11.65 7L12.5 8.45L13.35 7L14.65 7.75L13.8 9.2H15.5V10.7H13.8L14.65 12.2L13.35 12.95L12.5 11.45L11.65 12.95ZM19.65 12.95L18.35 12.2L19.2 10.7H17.5V9.2H19.2L18.35 7.75L19.65 7L20.5 8.45L21.35 7L22.65 7.75L21.8 9.2H23.5V10.7H21.8L22.65 12.2L21.35 12.95L20.5 11.45L19.65 12.95Z" fill="black"/>
</svg>
